<?xml version="1.0" encoding="utf-8"?>
<!-- Generator: Adobe Illustrator 22.1.0, SVG Export Plug-In . SVG Version: 6.00 Build 0)  -->
<svg version="1.1" id="Layer_1" xmlns="http://www.w3.org/2000/svg" xmlns:xlink="http://www.w3.org/1999/xlink" x="0px" y="0px"
	 viewBox="0 0 48 48" style="enable-background:new 0 0 48 48;" xml:space="preserve">
<style type="text/css">
	.st0{fill:#FFFFFF;}
</style>
<title>Asset 1</title>
<g id="Layer_2_1_">
	<g id="Layer_1-2">
		<path class="st0" d="M47,1v46H1V1H47 M48,0H0v48h48V0z"/>
		<path class="st0" d="M7.6,30.1c-1.2-0.3-1.4-0.5-1.4-0.9l0,0c0-0.3,0.3-0.5,0.8-0.5c0.6,0,1.3,0.3,1.8,0.7l0,0l0.8-1.2l0,0
			c-0.7-0.6-1.6-0.9-2.6-0.9c-1.2-0.1-2.3,0.7-2.4,1.9c0,0.1,0,0.1,0,0.2l0,0c0,1.4,1,1.8,2.3,2.1C8,31.8,8.2,32,8.2,32.3l0,0
			c0,0.4-0.3,0.6-0.9,0.6c-0.7,0-1.5-0.3-2-0.8l0,0l-1,1.1l0,0c0.8,0.7,1.9,1.1,3,1.1c1.6,0,2.6-0.8,2.6-2.2l0,0
			C9.8,31,8.9,30.5,7.6,30.1z"/>
		<polygon class="st0" points="10.8,28.8 12.8,28.8 12.8,34.3 14.4,34.3 14.4,28.8 16.5,28.8 16.5,27.4 10.8,27.4 		"/>
		<path class="st0" d="M22.4,31.3c0,1-0.5,1.6-1.4,1.6s-1.4-0.6-1.4-1.6v-3.9h-1.6v4c-0.2,1.5,0.9,2.9,2.5,3.1c0.2,0,0.4,0,0.5,0
			c1.6,0.2,3-0.9,3.1-2.5c0-0.2,0-0.4,0-0.7v-3.9h-1.6L22.4,31.3z"/>
		<path class="st0" d="M28.1,27.4h-2.7v7h2.7c1.9,0.1,3.6-1.3,3.7-3.2c0-0.1,0-0.2,0-0.2l0,0c0-1.9-1.5-3.5-3.4-3.5
			C28.3,27.3,28.2,27.3,28.1,27.4z M27,28.8h1.1c1.1,0,2,0.8,2,1.9c0,0,0,0.1,0,0.1l0,0c0.1,1.1-0.8,1.9-1.8,2c-0.1,0-0.1,0-0.2,0
			H27V28.8z"/>
		<rect x="33.1" y="27.4" class="st0" width="1.6" height="7"/>
		<polygon class="st0" points="36.1,37.3 40.3,37.3 36.1,40.5 36.1,40.5 36.1,42 43.1,42 43.1,40.4 38.8,40.4 43.1,37.1 43.1,37.1 
			43.1,35.7 36.1,35.7 		"/>
		<path class="st0" d="M43.1,24.3h-2.2v-1.1l2.2-1.5v-1.9l-2.5,1.7c-0.3-0.9-1.2-1.5-2.2-1.5l0,0c-1.5,0-2.3,1-2.3,2.6v3.2h7
			L43.1,24.3z M37.6,24.3v-1.5c0-0.7,0.3-1.1,0.9-1.1l0,0c0.6,0,0.9,0.4,0.9,1.1v1.5L37.6,24.3z"/>
		<polygon class="st0" points="37.6,17 43.1,17 43.1,15.4 37.6,15.4 37.6,13.3 36.1,13.3 36.1,19.1 37.6,19.1 		"/>
		<polygon class="st0" points="43.1,10.3 40.3,10.3 40.3,7.6 43.1,7.6 43.1,6 36.1,6 36.1,7.6 38.8,7.6 38.8,10.3 36.1,10.3 
			36.1,11.9 43.1,11.9 		"/>
		<path class="st0" d="M39.6,34.5c2,0,3.7-1.6,3.7-3.6c0-2-1.6-3.7-3.6-3.7c-2,0-3.7,1.6-3.7,3.6c0,0,0,0,0,0
			C36,32.8,37.6,34.4,39.6,34.5z M39.6,28.9c1.1,0,2,0.9,2,2s-0.9,2-2,2s-2-0.9-2-2S38.5,28.9,39.6,28.9
			C39.6,28.9,39.6,28.9,39.6,28.9z"/>
	</g>
</g>
</svg>
