<svg version="1" xmlns="http://www.w3.org/2000/svg" width="477.333" height="477.333" viewBox="0 0 358.000000 358.000000"><path d="M163.6 75c-22.3 3.5-44 14.5-59.6 30-12.7 12.8-22.9 30.6-27.7 48.5-2.3 8.8-2.6 11.8-2.6 26s.3 17.2 2.6 26c10 37.3 38.9 66.2 76.2 76.2 8.8 2.3 11.8 2.6 26 2.6s17.2-.3 26-2.6c37.3-10 66.2-38.9 76.2-76.2 2.3-8.8 2.6-11.8 2.6-26s-.3-17.2-2.6-26c-12.2-45.8-51.9-77.5-98.7-79-6.9-.2-15.2 0-18.4.5zm35.3 18c25.9 6.2 47.3 23.4 59.6 47.9 11.3 22.7 11.5 52.3.5 75.8-6.8 14.5-17.8 27.7-30.3 36.2-7.6 5.1-20.6 10.9-29.8 13.1-11.5 2.7-29.3 2.7-40.8 0-26.5-6.4-48.4-24.3-60.1-49.3-11-23.5-10.8-53.1.5-75.8 7-14 17.9-26.7 29.8-34.8 7.3-5 20.6-10.9 29.3-13 11.2-2.8 30-2.8 41.3-.1z"/><path d="M169.9 148.5c-14.8 4.7-25 19.7-23.6 34.5 1.1 12 7.9 22 18.5 27.2 5.9 2.9 7.6 3.3 14.7 3.3s8.8-.4 14.7-3.3c11.9-5.9 18.3-16.2 18.3-29.7 0-9.7-2.9-16.9-9.5-23.5-8.3-8.3-22.4-11.9-33.1-8.5z"/></svg>